# xmcd
#
# Track frame offsets: 
#        150
#        18127
#        35170
#        52912
#        71969
#        99573
#        118891
#        135571
#        154969
#        173471
#        189374
#        205305
#        222046
#
# Disc length: 3101 seconds
#
# Revision: 0
# Processed by: cddbd v1.5.2PL0 Copyright (c) Steve Scherf et al.
# Submitted via: ExactAudioCopyFreeDBPlugin 1.0
#
DISCID=b50c1b0d
DTITLE=George Terry - Guitar Drive
DYEAR=2004
DGENRE=Blues
TTITLE0=That Ain't You
TTITLE1=It's Only Make Believe
TTITLE2=She's My Harley Davidson
TTITLE3=Let Me Stay
TTITLE4=Don't Ask Me
TTITLE5=Off To See The Moon
TTITLE6=Long Way Down
TTITLE7=Only Love Can Save Me Tonight
TTITLE8=All Possible Dreams
TTITLE9=It's Alright
TTITLE10=Wild Life
TTITLE11=You Blame It All
TTITLE12=Get It Right
EXTD=
EXTT0=
EXTT1=
EXTT2=
EXTT3=
EXTT4=
EXTT5=
EXTT6=
EXTT7=
EXTT8=
EXTT9=
EXTT10=
EXTT11=
EXTT12=
PLAYORDER=
